<svg width="56" height="24" viewBox="0 0 56 24" fill="none" xmlns="http://www.w3.org/2000/svg">
<path opacity="0.08" d="M9.5 7V17H6.5C6.36739 17 6.24021 16.9473 6.14645 16.8536C6.05268 16.7598 6 16.6326 6 16.5V7.5C6 7.36739 6.05268 7.24021 6.14645 7.14645C6.24021 7.05268 6.36739 7 6.5 7H9.5Z" fill="black"/>
<path d="M17.5 6.5H6.5C6.23478 6.5 5.98043 6.60536 5.79289 6.79289C5.60536 6.98043 5.5 7.23478 5.5 7.5V16.5C5.5 16.7652 5.60536 17.0196 5.79289 17.2071C5.98043 17.3946 6.23478 17.5 6.5 17.5H17.5C17.7652 17.5 18.0196 17.3946 18.2071 17.2071C18.3946 17.0196 18.5 16.7652 18.5 16.5V7.5C18.5 7.23478 18.3946 6.98043 18.2071 6.79289C18.0196 6.60536 17.7652 6.5 17.5 6.5ZM6.5 13.5H7.5C7.63261 13.5 7.75979 13.4473 7.85355 13.3536C7.94732 13.2598 8 13.1326 8 13C8 12.8674 7.94732 12.7402 7.85355 12.6464C7.75979 12.5527 7.63261 12.5 7.5 12.5H6.5V11.5H7.5C7.63261 11.5 7.75979 11.4473 7.85355 11.3536C7.94732 11.2598 8 11.1326 8 11C8 10.8674 7.94732 10.7402 7.85355 10.6464C7.75979 10.5527 7.63261 10.5 7.5 10.5H6.5V9.5H7.5C7.63261 9.5 7.75979 9.44732 7.85355 9.35355C7.94732 9.25979 8 9.13261 8 9C8 8.86739 7.94732 8.74021 7.85355 8.64645C7.75979 8.55268 7.63261 8.5 7.5 8.5H6.5V7.5H9V16.5H6.5V13.5ZM17.5 16.5H10V7.5H17.5V16.5Z" fill="black"/>
<path opacity="0.08" d="M47.5081 13.2312C47.4396 13.2914 47.3886 13.3691 47.3607 13.4559C47.3327 13.5427 47.3288 13.6355 47.3494 13.7244L48.1944 17.3831C48.2167 17.4787 48.2104 17.5787 48.1763 17.6707C48.1422 17.7627 48.0818 17.8427 48.0025 17.9006C47.9233 17.9585 47.8288 17.9918 47.7307 17.9964C47.6327 18.0009 47.5355 17.9765 47.4512 17.9263L44.2575 15.9888C44.1799 15.9416 44.0908 15.9166 44 15.9166C43.9092 15.9166 43.8201 15.9416 43.7425 15.9888L40.5487 17.9263C40.4645 17.9765 40.3673 18.0009 40.2692 17.9964C40.1712 17.9918 40.0767 17.9585 39.9975 17.9006C39.9182 17.8427 39.8578 17.7627 39.8237 17.6707C39.7896 17.5787 39.7833 17.4787 39.8056 17.3831L40.6506 13.7244C40.6712 13.6355 40.6672 13.5427 40.6393 13.4559C40.6113 13.3691 40.5604 13.2914 40.4919 13.2312L37.6725 10.7719C37.5971 10.7078 37.5424 10.6228 37.5154 10.5277C37.4883 10.4325 37.4901 10.3315 37.5205 10.2374C37.5508 10.1432 37.6085 10.0602 37.686 9.99881C37.7636 9.93742 37.8576 9.90042 37.9562 9.8925L41.6725 9.57125C41.7632 9.56317 41.8499 9.5305 41.9234 9.47675C41.9968 9.423 42.0542 9.35022 42.0894 9.26625L43.5412 5.80625C43.58 5.71679 43.6441 5.64063 43.7256 5.58713C43.8071 5.53362 43.9025 5.50512 44 5.50512C44.0975 5.50512 44.1929 5.53362 44.2744 5.58713C44.3559 5.64063 44.42 5.71679 44.4587 5.80625L45.9106 9.26625C45.9458 9.35022 46.0032 9.423 46.0766 9.47675C46.1501 9.5305 46.2368 9.56317 46.3275 9.57125L50.0437 9.8925C50.1424 9.90042 50.2364 9.93742 50.314 9.99881C50.3915 10.0602 50.4492 10.1432 50.4795 10.2374C50.5099 10.3315 50.5117 10.4325 50.4846 10.5277C50.4576 10.6228 50.4029 10.7078 50.3275 10.7719L47.5081 13.2312Z" fill="black"/>
<path d="M50.95 10.0806C50.8894 9.89399 50.7753 9.72929 50.6218 9.60705C50.4684 9.4848 50.2823 9.4104 50.0869 9.39312L46.375 9.07312L44.92 5.61312C44.8442 5.43157 44.7165 5.27649 44.5528 5.16741C44.389 5.05833 44.1967 5.00012 44 5.00012C43.8033 5.00012 43.6109 5.05833 43.4472 5.16741C43.2835 5.27649 43.1557 5.43157 43.08 5.61312L41.6294 9.07312L37.9131 9.395C37.7169 9.41149 37.5299 9.48555 37.3756 9.60788C37.2213 9.73022 37.1065 9.8954 37.0457 10.0827C36.9849 10.27 36.9808 10.4711 37.0338 10.6607C37.0868 10.8504 37.1946 11.0201 37.3437 11.1487L40.1631 13.6125L39.3181 17.2712C39.2734 17.4627 39.2862 17.6631 39.3548 17.8474C39.4234 18.0316 39.5447 18.1916 39.7037 18.3072C39.8627 18.4229 40.0523 18.4891 40.2487 18.4976C40.4452 18.5061 40.6397 18.4565 40.8081 18.355L43.9956 16.4175L47.19 18.355C47.3584 18.4565 47.553 18.5061 47.7494 18.4976C47.9458 18.4891 48.1354 18.4229 48.2944 18.3072C48.4534 18.1916 48.5748 18.0316 48.6433 17.8474C48.7119 17.6631 48.7247 17.4627 48.68 17.2712L47.8356 13.6087L50.6544 11.1487C50.8035 11.0197 50.9111 10.8494 50.9637 10.6594C51.0163 10.4693 51.0115 10.268 50.95 10.0806ZM49.9987 10.3931L47.18 12.8531C47.0428 12.9725 46.9408 13.1269 46.8848 13.2999C46.8289 13.4729 46.8212 13.6579 46.8625 13.835L47.7094 17.5L44.5175 15.5625C44.3618 15.4677 44.183 15.4175 44.0006 15.4175C43.8183 15.4175 43.6395 15.4677 43.4837 15.5625L40.2962 17.5L41.1375 13.8375C41.1788 13.6604 41.1711 13.4754 41.1152 13.3024C41.0592 13.1294 40.9572 12.975 40.82 12.8556L38 10.3969C37.9998 10.395 37.9998 10.3931 38 10.3912L41.715 10.07C41.8964 10.054 42.0699 9.98881 42.217 9.88142C42.364 9.77403 42.4789 9.62853 42.5494 9.46062L44 6.005L45.45 9.46062C45.5204 9.62853 45.6353 9.77403 45.7824 9.88142C45.9294 9.98881 46.103 10.054 46.2844 10.07L50 10.3912C50 10.3912 50 10.395 50 10.3956L49.9987 10.3931Z" fill="black"/>
</svg>
