<svg width="24" height="24" viewBox="0 0 24 24" fill="none" xmlns="http://www.w3.org/2000/svg">
<path opacity="0.08" d="M17.5 12C17.5 13.0878 17.1774 14.1512 16.5731 15.0556C15.9687 15.9601 15.1098 16.6651 14.1048 17.0813C13.0998 17.4976 11.9939 17.6065 10.927 17.3943C9.86011 17.1821 8.8801 16.6583 8.11092 15.8891C7.34173 15.1199 6.8179 14.1399 6.60568 13.073C6.39346 12.0061 6.50238 10.9002 6.91867 9.89524C7.33495 8.89025 8.0399 8.03126 8.94437 7.42692C9.84884 6.82257 10.9122 6.5 12 6.5C13.4587 6.5 14.8576 7.07946 15.8891 8.11091C16.9205 9.14236 17.5 10.5413 17.5 12Z" fill="black"/>
<path d="M12.5 9V11.7169L14.7575 13.0712C14.8712 13.1395 14.9531 13.2502 14.9853 13.3789C15.0174 13.5076 14.997 13.6438 14.9288 13.7575C14.8605 13.8712 14.7498 13.9531 14.6211 13.9853C14.4924 14.0174 14.3562 13.997 14.2425 13.9287L11.7425 12.4287C11.6685 12.3843 11.6073 12.3214 11.5648 12.2463C11.5223 12.1712 11.5 12.0863 11.5 12V9C11.5 8.86739 11.5527 8.74021 11.6464 8.64645C11.7402 8.55268 11.8674 8.5 12 8.5C12.1326 8.5 12.2598 8.55268 12.3536 8.64645C12.4473 8.74021 12.5 8.86739 12.5 9ZM12 6C11.2112 5.99803 10.4299 6.15252 9.70128 6.45452C8.97263 6.75651 8.31111 7.20002 7.755 7.75937C7.30063 8.21937 6.89688 8.66187 6.5 9.125V8C6.5 7.86739 6.44732 7.74021 6.35355 7.64645C6.25979 7.55268 6.13261 7.5 6 7.5C5.86739 7.5 5.74021 7.55268 5.64645 7.64645C5.55268 7.74021 5.5 7.86739 5.5 8V10.5C5.5 10.6326 5.55268 10.7598 5.64645 10.8536C5.74021 10.9473 5.86739 11 6 11H8.5C8.63261 11 8.75979 10.9473 8.85355 10.8536C8.94732 10.7598 9 10.6326 9 10.5C9 10.3674 8.94732 10.2402 8.85355 10.1464C8.75979 10.0527 8.63261 10 8.5 10H7.0625C7.50938 9.47375 7.95438 8.97812 8.46187 8.46437C9.15678 7.76947 10.0411 7.29475 11.0042 7.09955C11.9674 6.90434 12.9667 6.9973 13.8774 7.3668C14.788 7.73631 15.5696 8.36598 16.1244 9.17713C16.6792 9.98828 16.9827 10.9449 16.9969 11.9276C17.0111 12.9102 16.7354 13.8753 16.2043 14.7021C15.6732 15.529 14.9102 16.181 14.0106 16.5767C13.111 16.9724 12.1148 17.0942 11.1464 16.927C10.178 16.7597 9.28034 16.3108 8.56563 15.6362C8.51786 15.5911 8.46166 15.5558 8.40026 15.5324C8.33885 15.509 8.27343 15.4979 8.20773 15.4997C8.14204 15.5016 8.07735 15.5164 8.01736 15.5432C7.95738 15.5701 7.90327 15.6085 7.85812 15.6562C7.81298 15.704 7.77769 15.7602 7.75427 15.8216C7.73084 15.883 7.71974 15.9484 7.7216 16.0141C7.72345 16.0798 7.73823 16.1445 7.76509 16.2045C7.79195 16.2645 7.83036 16.3186 7.87812 16.3637C8.59028 17.0358 9.45609 17.5233 10.4 17.7838C11.3439 18.0443 12.3372 18.0698 13.2933 17.8581C14.2493 17.6464 15.139 17.2039 15.8847 16.5693C16.6304 15.9347 17.2095 15.1272 17.5713 14.2174C17.9332 13.3075 18.0669 12.3229 17.9607 11.3495C17.8546 10.3761 17.5118 9.44343 16.9623 8.63296C16.4128 7.82248 15.6733 7.15881 14.8083 6.69986C13.9433 6.24091 12.9792 6.00064 12 6Z" fill="black"/>
</svg>
