<svg width="20" height="16" viewBox="0 0 20 16" fill="none" xmlns="http://www.w3.org/2000/svg">
<path d="M6.40039 0.25H13.5996C14.7238 0.25 15.5526 0.250239 16.207 0.303711C16.8584 0.356947 17.3155 0.462185 17.7021 0.65918C18.4078 1.0187 18.9813 1.59224 19.3408 2.29785C19.5378 2.6845 19.6431 3.14156 19.6963 3.79297C19.7498 4.44744 19.75 5.27616 19.75 6.40039V9.59961C19.75 10.7238 19.7498 11.5526 19.6963 12.207C19.6431 12.8584 19.5378 13.3155 19.3408 13.7021C18.9813 14.4078 18.4078 14.9813 17.7021 15.3408C17.3155 15.5378 16.8584 15.6431 16.207 15.6963C15.5526 15.7498 14.7238 15.75 13.5996 15.75H6.40039C5.27616 15.75 4.44744 15.7498 3.79297 15.6963C3.14156 15.6431 2.6845 15.5378 2.29785 15.3408C1.59224 14.9813 1.0187 14.4078 0.65918 13.7021C0.462185 13.3155 0.356947 12.8584 0.303711 12.207C0.250239 11.5526 0.25 10.7238 0.25 9.59961V6.40039C0.25 5.27616 0.250239 4.44744 0.303711 3.79297C0.356947 3.14156 0.462185 2.6845 0.65918 2.29785C1.0187 1.59224 1.59224 1.0187 2.29785 0.65918C2.6845 0.462185 3.14156 0.356947 3.79297 0.303711C4.44744 0.250239 5.27616 0.25 6.40039 0.25Z" stroke="black" stroke-opacity="0.1" stroke-width="0.5"/>
<path d="M11.867 2.86364L9.05451 13.3125H8.13406L10.9466 2.86364H11.867Z" fill="black" fill-opacity="0.2"/>
</svg>
