<svg width="24" height="24" viewBox="0 0 24 24" fill="none" xmlns="http://www.w3.org/2000/svg">
<path opacity="0.08" d="M9.5 7V17H6.5C6.36739 17 6.24021 16.9473 6.14645 16.8536C6.05268 16.7598 6 16.6326 6 16.5V7.5C6 7.36739 6.05268 7.24021 6.14645 7.14645C6.24021 7.05268 6.36739 7 6.5 7H9.5Z" fill="black"/>
<path d="M17.5 6.5H6.5C6.23478 6.5 5.98043 6.60536 5.79289 6.79289C5.60536 6.98043 5.5 7.23478 5.5 7.5V16.5C5.5 16.7652 5.60536 17.0196 5.79289 17.2071C5.98043 17.3946 6.23478 17.5 6.5 17.5H17.5C17.7652 17.5 18.0196 17.3946 18.2071 17.2071C18.3946 17.0196 18.5 16.7652 18.5 16.5V7.5C18.5 7.23478 18.3946 6.98043 18.2071 6.79289C18.0196 6.60536 17.7652 6.5 17.5 6.5ZM6.5 13.5H7.5C7.63261 13.5 7.75979 13.4473 7.85355 13.3536C7.94732 13.2598 8 13.1326 8 13C8 12.8674 7.94732 12.7402 7.85355 12.6464C7.75979 12.5527 7.63261 12.5 7.5 12.5H6.5V11.5H7.5C7.63261 11.5 7.75979 11.4473 7.85355 11.3536C7.94732 11.2598 8 11.1326 8 11C8 10.8674 7.94732 10.7402 7.85355 10.6464C7.75979 10.5527 7.63261 10.5 7.5 10.5H6.5V9.5H7.5C7.63261 9.5 7.75979 9.44732 7.85355 9.35355C7.94732 9.25979 8 9.13261 8 9C8 8.86739 7.94732 8.74021 7.85355 8.64645C7.75979 8.55268 7.63261 8.5 7.5 8.5H6.5V7.5H9V16.5H6.5V13.5ZM17.5 16.5H10V7.5H17.5V16.5Z" fill="black"/>
</svg>
